# xmcd
#
# Track frame offsets:
#	150
#	17785
#	37397
#	54310
#	75952
#	94682
#	113695
#	132832
#	154672
#	166652
#	181852
#	208644
#
# Disc length: 3675 seconds
#
# Revision: 0
# Processed by: cddbd v1.5.1PL0 Copyright (c) Steve Scherf et al.
# Submitted via: dBpowerAMP V4.0
#
DISCID=8b0e590c
DTITLE=Edgar Oceransky - De carne y hueso
DYEAR=2004
DGENRE=Acoustic
TTITLE0=Volver a perdernos
TTITLE1=Kilometros de cielo
TTITLE2=Inmensa soledad
TTITLE3=Adentro de tu piel
TTITLE4=Vuelve
TTITLE5=Sigo amándote
TTITLE6=Que tristeza
TTITLE7=Días y noches
TTITLE8=Como un ladrón
TTITLE9=De carne y hueso
TTITLE10=Juro
TTITLE11=DATA
EXTD=
EXTT0=
EXTT1=
EXTT2=
EXTT3=
EXTT4=
EXTT5=
EXTT6=
EXTT7=
EXTT8=
EXTT9=
EXTT10=
EXTT11=
PLAYORDER=
